# xmcd CD database file
#
# Track frame offsets:
#	150
#	11639
#	21221
#	32548
#	44871
#	56385
#	66152
#	79742
#	91959
#	101557
#	112148
#	126612
#
# Disc length: 1811 seconds
#
# Revision: 0
# Processed by: cddbd v1.5.2PL0 Copyright (c) Steve Scherf et al.
# Submitted via: CDex 1.70beta2
#
DISCID=a407110c
DTITLE=Willie Nelson - Heartaches
DYEAR=2007
DGENRE=Country
TTITLE0=Touch Me
TTITLE1=Half a man
TTITLE2=I hope so
TTITLE3=Any old arms won´t do
TTITLE4=End of understanding
TTITLE5=Healing hands of time
TTITLE6=Last letter
TTITLE7=Shelter of your arms
TTITLE8=Ashamed
TTITLE9=Suffer in silence
TTITLE10=Face of a fighter
TTITLE11=Building heartaches
EXTD=YEAR: 2007
EXTT0=
EXTT1=
EXTT2=
EXTT3=
EXTT4=
EXTT5=
EXTT6=
EXTT7=
EXTT8=
EXTT9=
EXTT10=
EXTT11=
PLAYORDER=
